# xmcd CD database file
#
# Track frame offsets:
#	150
#	14025
#	27262
#	40842
#	54665
#	68027
#	83142
#	95452
#	109677
#	123770
#	137745
#	150987
#	165450
#	180870
#	194952
#	207085
#	221905
#	236065
#	248787
#	261930
#	275390
#	287102
#	299552
#
# Disc length: 4172 seconds
#
# Revision: 0
# Processed by: cddbd v1.5.1PL0 Copyright (c) Steve Scherf et al.
# Submitted via: CDex 1.50beta10
#
DISCID=55104a17
DTITLE=Charlie Parker - The Very Best of the Dial Years
DYEAR=1947
DGENRE=Jazz
TTITLE0=A Night in Tunisia
TTITLE1=Yardbird Suite
TTITLE2=Ornithology
TTITLE3=Moose the Mooche
TTITLE4=Bebop (aka Be Bop)
TTITLE5=Lover Man
TTITLE6=Bird's Nest
TTITLE7=Cool Blues
TTITLE8=Relaxin' at Camarillo
TTITLE9=Cheers
TTITLE10=Stupendous
TTITLE11=Bird of Paradise
TTITLE12=Embraceable You
TTITLE13=Klact-oveeseds-tene
TTITLE14=Scrapple from the Apple
TTITLE15=My Old Flame
TTITLE16=Out of Nowhere
TTITLE17=Don't Blame Me
TTITLE18=Quasimodo
TTITLE19=Crazeology
TTITLE20=Donna Lee
TTITLE21=Chasin' the Bird
TTITLE22=Cheryl
EXTD=YEAR: 1947
EXTT0=
EXTT1=
EXTT2=
EXTT3=
EXTT4=
EXTT5=
EXTT6=
EXTT7=
EXTT8=
EXTT9=
EXTT10=
EXTT11=
EXTT12=
EXTT13=
EXTT14=
EXTT15=
EXTT16=
EXTT17=
EXTT18=
EXTT19=
EXTT20=
EXTT21=
EXTT22=
PLAYORDER=
